#tb 0: 1/1000
0,          0,          0,        0,   115200, 0xa974d407
0,          1,          1,        0,   115200, 0x72618b84
0,          2,          2,        0,   115200, 0x87768573
0,          3,          3,        0,   115200, 0x5d218e3e
0,          4,          4,        0,   115200, 0x0c0db41c
0,          5,          5,        0,   115200, 0xb777fd48
0,          6,          6,        0,   115200, 0x40765de7
0,          7,          7,        0,   115200, 0x370a3c90
0,          8,          8,        0,   115200, 0xc605785a
0,          9,          9,        0,   115200, 0x49468b23
0,         10,         10,        0,   115200, 0x986b6fd4
0,         11,         11,        0,   115200, 0x30f22ef8
0,         12,         12,        0,   115200, 0xa90bd608
0,         13,         13,        0,   115200, 0x9cf36518
0,         14,         14,        0,   115200, 0x4ef1a679
0,         15,         15,        0,   115200, 0x0df65873
0,         16,         16,        0,   115200, 0xfecd4233
0,         17,         17,        0,   115200, 0xee2f26cb
0,         18,         18,        0,   115200, 0x795f612d
0,         19,         19,        0,   115200, 0xbbb90125
0,         20,         20,        0,   115200, 0x9230fb6e
0,         21,         21,        0,   115200, 0x11869996
0,         22,         22,        0,   115200, 0x6b5c892b
0,         23,         23,        0,   115200, 0x88bdb9cd
0,         24,         24,        0,   115200, 0x364bc5a0
0,         25,         25,        0,   115200, 0x6b66d817
0,         26,         26,        0,   115200, 0xd3a41252
0,         27,         27,        0,   115200, 0x0cf5612f
0,         28,         28,        0,   115200, 0x9752d055
0,         29,         29,        0,   115200, 0x486e9f6f
0,         30,         30,        0,   115200, 0x3eab62f8
0,         31,         31,        0,   115200, 0xa7f52762
0,         32,         32,        0,   115200, 0xfd4c4bbc
0,         33,         33,        0,   115200, 0x194023f6
0,         34,         34,        0,   115200, 0xd4668dad
0,         35,         35,        0,   115200, 0x6b20d64b
0,         36,         36,        0,   115200, 0xf2572aae
0,         37,         37,        0,   115200, 0xc3554f25
0,         38,         38,        0,   115200, 0xeeb5073a
0,         39,         39,        0,   115200, 0xbd46291f
0,         40,         40,        0,   115200, 0x0526838d
0,         41,         41,        0,   115200, 0x85b2e864
0,         42,         42,        0,   115200, 0xcfd894bc
0,         43,         43,        0,   115200, 0x644f10fb
0,         44,         44,        0,   115200, 0x556e4d88
0,         45,         45,        0,   115200, 0x93243614
0,         46,         46,        0,   115200, 0x754275c5
0,         47,         47,        0,   115200, 0x7f648bf3
0,         48,         48,        0,   115200, 0xece18c9b
0,         49,         49,        0,   115200, 0x385d52c1
0,         50,         50,        0,   115200, 0xafc58e4a
0,         51,         51,        0,   115200, 0x50daf750
0,         52,         52,        0,   115200, 0xf6bc67d1
0,         53,         53,        0,   115200, 0xb64b6e07
0,         54,         54,        0,   115200, 0x8751ed15
0,         55,         55,        0,   115200, 0x329ce803
0,         56,         56,        0,   115200, 0x40b2cb05
0,         57,         57,        0,   115200, 0x60f3517d
0,         58,         58,        0,   115200, 0xe0d46fdf
0,         59,         59,        0,   115200, 0x204529fa
0,         60,         60,        0,   115200, 0xd5afaf22
0,         61,         61,        0,   115200, 0xd3cb3d4c
0,         62,         62,        0,   115200, 0x87973a79
0,         63,         63,        0,   115200, 0xe3b2f917
0,         64,         64,        0,   115200, 0xf1923238
0,         65,         65,        0,   115200, 0x51494d71
0,         66,         66,        0,   115200, 0x58bc59bb
0,         67,         67,        0,   115200, 0xd0273fdb
0,         68,         68,        0,   115200, 0x6cc79700
0,         69,         69,        0,   115200, 0xc8172d31
0,         70,         70,        0,   115200, 0x8eb037ef
0,         71,         71,        0,   115200, 0xc0bc2d76
0,         72,         72,        0,   115200, 0x663c467a
0,         73,         73,        0,   115200, 0xd085e950
0,         74,         74,        0,   115200, 0x7d198d72
0,         75,         75,        0,   115200, 0x6ebacda0
